<svg
    width="2078"
    height="1074"
    viewBox="0 0 2078 1074"
    version="1.1"
    role="img"
>
    <title>Baddy logo</title>
    <path
        d="M 1344.290 457.202 C 1327.332 474.388, 1326.101 475.850, 1319.974 486.043 C 1297.168 523.989, 1298.050 570.379, 1322.281 607.368 C 1347.990 646.614, 1401.344 664.246, 1448.127 648.959 C 1468.127 642.423, 1480.181 634.401, 1500.245 614.276 L 1514.990 599.486 1436.694 521.194 L 1358.398 442.903 1344.290 457.202"
        stroke="none"
        fill="#DC2626"
        fill-rule="evenodd"
    />
    <path
        d="M 1570.486 39.390 C 1546.865 43.903, 1527.375 59.532, 1515.073 83.825 C 1512.738 88.437, 1495.245 131.054, 1451.996 237.500 C 1437.248 273.800, 1417.490 322.318, 1408.090 345.318 C 1398.691 368.319, 1391.004 387.894, 1391.010 388.818 C 1391.015 389.743, 1410.586 410.063, 1434.500 433.974 C 1472.240 471.707, 1478.165 477.253, 1479.370 475.974 C 1480.134 475.163, 1502.436 446.262, 1528.931 411.750 C 1555.426 377.237, 1577.424 349, 1577.814 349 C 1578.205 349, 1585.494 355.992, 1594.012 364.537 L 1609.500 380.075 1607.269 381.787 C 1606.042 382.729, 1577.148 404.875, 1543.061 431 C 1508.975 457.125, 1481.066 478.952, 1481.043 479.504 C 1480.972 481.167, 1567.379 567, 1569.123 567 C 1570.012 567, 1576.310 564.709, 1583.119 561.909 C 1589.929 559.109, 1629.700 542.861, 1671.500 525.802 C 1796.025 474.981, 1864.055 447.011, 1871.727 443.479 C 1889.447 435.321, 1903.714 422.081, 1911.509 406.563 C 1916.818 395.994, 1918.958 386.908, 1918.983 374.838 C 1919.023 354.716, 1911.809 334.719, 1897.587 315.529 C 1876.972 287.711, 1848.826 272.263, 1812.257 268.695 L 1800.013 267.500 1799.578 256.500 C 1798.631 232.608, 1790.935 211.518, 1776.694 193.790 C 1759.222 172.041, 1728.739 158, 1698.994 158 L 1690.250 158 1689.625 154.875 C 1689.281 153.156, 1689 149.289, 1689 146.282 C 1689 143.275, 1688.093 136.363, 1686.984 130.923 C 1680.339 98.314, 1663.501 73.704, 1635.189 55.220 C 1614.480 41.701, 1589.885 35.683, 1570.486 39.390 M 1575.871 101.809 C 1573.957 103.489, 1571.165 107.368, 1569.667 110.428 C 1567.173 115.520, 1548.600 160.677, 1533.826 197.568 L 1527.791 212.636 1549.347 234.568 C 1570.804 256.399, 1570.912 256.491, 1572.844 254.500 C 1576.929 250.290, 1619.195 194.539, 1621.033 190.935 C 1624.816 183.519, 1628.147 169.831, 1628.681 159.500 C 1629.302 147.474, 1627.573 138.108, 1622.913 128.260 C 1616.450 114.603, 1597.969 100.442, 1585.082 99.274 C 1579.763 98.791, 1579.099 98.974, 1575.871 101.809 M 1691.988 219.133 C 1685.192 220.040, 1682.006 221.206, 1675.132 225.302 C 1670.456 228.087, 1666.341 232.950, 1643.234 263 C 1628.642 281.975, 1616.244 298.088, 1615.682 298.807 C 1614.909 299.797, 1619.745 305.205, 1635.580 321.057 C 1647.086 332.575, 1657.063 342, 1657.751 342 C 1660.246 342, 1727.247 289.612, 1730.651 285 C 1736.538 277.022, 1738.387 270.855, 1738.447 259 C 1738.498 248.939, 1738.349 248.186, 1734.890 241 C 1730.763 232.427, 1728.110 229.297, 1721.316 224.980 C 1713.245 219.851, 1702.560 217.721, 1691.988 219.133 M 1501.721 276.605 C 1499.328 281.283, 1440.869 425.202, 1441.219 425.553 C 1441.489 425.822, 1528.749 312.918, 1532.921 306.901 C 1534.260 304.971, 1533.432 303.940, 1518.772 289.280 L 1503.202 273.710 1501.721 276.605 M 1784.255 330.569 C 1770.285 333.631, 1765.193 336.705, 1733 361.517 C 1716.225 374.446, 1702.379 385.581, 1702.230 386.262 C 1702.082 386.943, 1711.604 397.131, 1723.390 408.901 L 1744.820 430.303 1792.160 411.015 C 1818.197 400.406, 1842.200 390.410, 1845.500 388.801 C 1852.995 385.146, 1857.798 380.593, 1858.585 376.398 C 1860.035 368.667, 1851.272 351.926, 1840.889 342.590 C 1835.046 337.337, 1826.077 332.701, 1817.540 330.522 C 1810.185 328.644, 1792.928 328.669, 1784.255 330.569 M 155.246 531.705 L 155.500 651.500 223 651.475 C 288.593 651.450, 290.773 651.388, 300.153 649.278 C 324.030 643.908, 339.716 632.845, 347.991 615.539 C 352.732 605.623, 354.213 598.542, 354.143 586.117 C 354.078 574.657, 352.272 567.214, 347.222 557.598 C 340.672 545.126, 329.451 535.475, 315.612 530.412 C 310.738 528.629, 309.905 528.033, 311.500 527.472 C 330.310 520.856, 343.717 506.264, 347.533 488.257 C 350.469 474.403, 348.760 458.496, 343.018 446.224 C 338.539 436.653, 327.971 426.483, 317 421.185 C 312.325 418.928, 304.675 416.072, 300 414.839 C 291.662 412.640, 290.199 412.590, 223.246 412.253 L 154.992 411.909 155.246 531.705 M 441.215 414.750 C 438.321 422.865, 377.328 590.317, 367.183 618 C 360.632 635.875, 355.463 650.837, 355.695 651.250 C 355.928 651.663, 371.579 652, 390.476 652 L 424.833 652 431.250 632.750 L 437.667 613.500 480.500 613.500 L 523.333 613.500 529.750 632.750 L 536.167 652 571.083 652 C 590.288 652, 606 651.621, 606 651.157 C 606 650.694, 590.013 606.256, 570.473 552.407 C 550.933 498.558, 531.484 444.938, 527.253 433.250 L 519.560 412 480.878 412 L 442.196 412 441.215 414.750 M 615.246 531.750 L 615.500 651.500 670.500 651.500 C 719.229 651.500, 726.697 651.292, 736 649.676 C 788.109 640.623, 824.033 606.119, 833.533 556 C 835.884 543.594, 835.970 520.022, 833.708 507.500 C 829.099 481.974, 819.232 462.958, 801.537 445.500 C 786.786 430.947, 770.318 421.756, 749.553 416.488 C 733.485 412.412, 726.107 412, 669.272 412 L 614.992 412 615.246 531.750 M 853 532 L 853 652 902.826 652 C 931.604 652, 957.267 651.537, 963.576 650.905 C 1012.394 646.012, 1049.568 618.831, 1065.622 576.290 C 1069.964 564.785, 1072.042 553.480, 1072.681 537.885 C 1073.901 508.155, 1067.896 484.243, 1053.831 462.823 C 1039.922 441.641, 1018.774 426.221, 992.500 418.103 C 974.185 412.444, 968.180 412.012, 907.750 412.006 L 853 412 853 532 M 1074.163 412.769 C 1074.348 413.205, 1080.519 425.248, 1087.876 439.531 C 1095.232 453.814, 1114.020 490.308, 1129.626 520.629 L 1158 575.757 1158 613.879 L 1158 652 1191.500 652 L 1225 652 1225 613.986 L 1225 575.971 1231.404 563.236 C 1234.926 556.231, 1253.826 519.480, 1273.404 481.566 C 1292.982 443.653, 1309 412.485, 1309 412.304 C 1309 412.124, 1292.058 412.094, 1271.352 412.238 L 1233.704 412.500 1213.184 457.750 C 1201.898 482.637, 1192.402 502.998, 1192.082 502.996 C 1191.762 502.994, 1182.207 482.631, 1170.848 457.746 L 1150.196 412.500 1112.011 412.238 C 1091.009 412.094, 1073.977 412.333, 1074.163 412.769 M 1593 469.096 C 1560.825 493.857, 1533.607 514.995, 1532.515 516.071 C 1531.123 517.442, 1534.110 516.557, 1542.515 513.109 C 1549.107 510.405, 1583.300 496.403, 1618.500 481.993 C 1653.700 467.583, 1682.887 455.557, 1683.361 455.269 C 1684.352 454.666, 1654.042 423.981, 1652.512 424.038 C 1651.955 424.058, 1625.175 444.334, 1593 469.096 M 222 486 L 222 507 241.818 507 C 263.521 507, 269.468 506.001, 274.881 501.447 C 279.226 497.791, 281.397 491.318, 280.734 483.999 C 280.098 476.995, 277.701 472.389, 273.064 469.264 C 267.601 465.582, 263.469 465.011, 242.250 465.006 L 222 465 222 486 M 682.242 531.147 L 682.500 592.500 700.500 592.396 C 720.415 592.280, 726.504 591.203, 738 585.761 C 746.180 581.889, 757.412 570.860, 761.180 563 C 765.889 553.175, 767.363 545.686, 767.379 531.500 C 767.401 511.255, 762.818 497.980, 752 486.952 C 745.535 480.362, 739.668 476.746, 729.733 473.229 C 723.107 470.883, 720.800 470.632, 702.242 470.231 L 681.985 469.794 682.242 531.147 M 920 531.633 L 920 593.266 938.250 592.732 C 951.855 592.334, 958.293 591.707, 963.544 590.268 C 990.641 582.840, 1005 562.525, 1005 531.618 C 1005 511.038, 1000.278 498.048, 988.592 486.478 C 975.734 473.748, 964.077 470, 937.340 470 L 920 470 920 531.633 M 479.530 487.083 C 479.235 487.862, 473.693 504.700, 467.213 524.500 L 455.432 560.500 480.365 560.767 C 494.078 560.915, 505.448 560.885, 505.631 560.702 C 506.110 560.223, 481.912 487.679, 480.907 486.583 C 480.410 486.042, 479.846 486.247, 479.530 487.083 M 222.488 555.170 C 222.196 555.931, 222.079 565.767, 222.229 577.027 L 222.500 597.500 243.490 597.771 C 255.749 597.929, 266.638 597.594, 269.667 596.965 C 281.179 594.575, 286.739 586.798, 285.749 574.467 C 285.034 565.560, 281.796 560.725, 274.177 557.186 C 268.666 554.626, 267.834 554.538, 245.760 554.168 C 227.058 553.854, 222.925 554.032, 222.488 555.170"
        stroke="none"
        fill="#312e81"
        fill-rule="evenodd"
    />
    <path
        d="M 0 537 L 0 1074.001 1039.250 1073.750 L 2078.500 1073.500 2078.751 536.750 L 2079.002 0 1039.501 0 L 0 0 0 537 M 0.496 537.500 C 0.496 832.850, 0.610 953.526, 0.750 805.668 C 0.890 657.810, 0.890 416.160, 0.750 268.668 C 0.610 121.176, 0.496 242.150, 0.496 537.500 M 1570.486 39.390 C 1546.865 43.903, 1527.375 59.532, 1515.073 83.825 C 1512.738 88.437, 1495.245 131.054, 1451.996 237.500 C 1437.248 273.800, 1417.490 322.318, 1408.090 345.318 C 1398.691 368.319, 1391.004 387.894, 1391.010 388.818 C 1391.015 389.743, 1410.586 410.063, 1434.500 433.974 C 1472.240 471.707, 1478.165 477.253, 1479.370 475.974 C 1480.134 475.163, 1502.436 446.262, 1528.931 411.750 C 1555.426 377.237, 1577.424 349, 1577.814 349 C 1578.205 349, 1585.494 355.992, 1594.012 364.537 L 1609.500 380.075 1607.269 381.787 C 1606.042 382.729, 1577.148 404.875, 1543.061 431 C 1508.975 457.125, 1481.066 478.952, 1481.043 479.504 C 1480.972 481.167, 1567.379 567, 1569.123 567 C 1570.012 567, 1576.310 564.709, 1583.119 561.909 C 1589.929 559.109, 1629.700 542.861, 1671.500 525.802 C 1796.025 474.981, 1864.055 447.011, 1871.727 443.479 C 1889.447 435.321, 1903.714 422.081, 1911.509 406.563 C 1916.818 395.994, 1918.958 386.908, 1918.983 374.838 C 1919.023 354.716, 1911.809 334.719, 1897.587 315.529 C 1876.972 287.711, 1848.826 272.263, 1812.257 268.695 L 1800.013 267.500 1799.578 256.500 C 1798.631 232.608, 1790.935 211.518, 1776.694 193.790 C 1759.222 172.041, 1728.739 158, 1698.994 158 L 1690.250 158 1689.625 154.875 C 1689.281 153.156, 1689 149.289, 1689 146.282 C 1689 143.275, 1688.093 136.363, 1686.984 130.923 C 1680.339 98.314, 1663.501 73.704, 1635.189 55.220 C 1614.480 41.701, 1589.885 35.683, 1570.486 39.390 M 1575.871 101.809 C 1573.957 103.489, 1571.165 107.368, 1569.667 110.428 C 1567.173 115.520, 1548.600 160.677, 1533.826 197.568 L 1527.791 212.636 1549.347 234.568 C 1570.804 256.399, 1570.912 256.491, 1572.844 254.500 C 1576.929 250.290, 1619.195 194.539, 1621.033 190.935 C 1624.816 183.519, 1628.147 169.831, 1628.681 159.500 C 1629.302 147.474, 1627.573 138.108, 1622.913 128.260 C 1616.450 114.603, 1597.969 100.442, 1585.082 99.274 C 1579.763 98.791, 1579.099 98.974, 1575.871 101.809 M 1691.988 219.133 C 1685.192 220.040, 1682.006 221.206, 1675.132 225.302 C 1670.456 228.087, 1666.341 232.950, 1643.234 263 C 1628.642 281.975, 1616.244 298.088, 1615.682 298.807 C 1614.909 299.797, 1619.745 305.205, 1635.580 321.057 C 1647.086 332.575, 1657.063 342, 1657.751 342 C 1660.246 342, 1727.247 289.612, 1730.651 285 C 1736.538 277.022, 1738.387 270.855, 1738.447 259 C 1738.498 248.939, 1738.349 248.186, 1734.890 241 C 1730.763 232.427, 1728.110 229.297, 1721.316 224.980 C 1713.245 219.851, 1702.560 217.721, 1691.988 219.133 M 1501.721 276.605 C 1499.328 281.283, 1440.869 425.202, 1441.219 425.553 C 1441.489 425.822, 1528.749 312.918, 1532.921 306.901 C 1534.260 304.971, 1533.432 303.940, 1518.772 289.280 L 1503.202 273.710 1501.721 276.605 M 1784.255 330.569 C 1770.285 333.631, 1765.193 336.705, 1733 361.517 C 1716.225 374.446, 1702.379 385.581, 1702.230 386.262 C 1702.082 386.943, 1711.604 397.131, 1723.390 408.901 L 1744.820 430.303 1792.160 411.015 C 1818.197 400.406, 1842.200 390.410, 1845.500 388.801 C 1852.995 385.146, 1857.798 380.593, 1858.585 376.398 C 1860.035 368.667, 1851.272 351.926, 1840.889 342.590 C 1835.046 337.337, 1826.077 332.701, 1817.540 330.522 C 1810.185 328.644, 1792.928 328.669, 1784.255 330.569 M 155.246 531.705 L 155.500 651.500 223 651.475 C 288.593 651.450, 290.773 651.388, 300.153 649.278 C 324.030 643.908, 339.716 632.845, 347.991 615.539 C 352.732 605.623, 354.213 598.542, 354.143 586.117 C 354.078 574.657, 352.272 567.214, 347.222 557.598 C 340.672 545.126, 329.451 535.475, 315.612 530.412 C 310.738 528.629, 309.905 528.033, 311.500 527.472 C 330.310 520.856, 343.717 506.264, 347.533 488.257 C 350.469 474.403, 348.760 458.496, 343.018 446.224 C 338.539 436.653, 327.971 426.483, 317 421.185 C 312.325 418.928, 304.675 416.072, 300 414.839 C 291.662 412.640, 290.199 412.590, 223.246 412.253 L 154.992 411.909 155.246 531.705 M 441.215 414.750 C 438.321 422.865, 377.328 590.317, 367.183 618 C 360.632 635.875, 355.463 650.837, 355.695 651.250 C 355.928 651.663, 371.579 652, 390.476 652 L 424.833 652 431.250 632.750 L 437.667 613.500 480.500 613.500 L 523.333 613.500 529.750 632.750 L 536.167 652 571.083 652 C 590.288 652, 606 651.621, 606 651.157 C 606 650.694, 590.013 606.256, 570.473 552.407 C 550.933 498.558, 531.484 444.938, 527.253 433.250 L 519.560 412 480.878 412 L 442.196 412 441.215 414.750 M 615.246 531.750 L 615.500 651.500 670.500 651.500 C 719.229 651.500, 726.697 651.292, 736 649.676 C 788.109 640.623, 824.033 606.119, 833.533 556 C 835.884 543.594, 835.970 520.022, 833.708 507.500 C 829.099 481.974, 819.232 462.958, 801.537 445.500 C 786.786 430.947, 770.318 421.756, 749.553 416.488 C 733.485 412.412, 726.107 412, 669.272 412 L 614.992 412 615.246 531.750 M 853 532 L 853 652 902.826 652 C 931.604 652, 957.267 651.537, 963.576 650.905 C 1012.394 646.012, 1049.568 618.831, 1065.622 576.290 C 1069.964 564.785, 1072.042 553.480, 1072.681 537.885 C 1073.901 508.155, 1067.896 484.243, 1053.831 462.823 C 1039.922 441.641, 1018.774 426.221, 992.500 418.103 C 974.185 412.444, 968.180 412.012, 907.750 412.006 L 853 412 853 532 M 1074.163 412.769 C 1074.348 413.205, 1080.519 425.248, 1087.876 439.531 C 1095.232 453.814, 1114.020 490.308, 1129.626 520.629 L 1158 575.757 1158 613.879 L 1158 652 1191.500 652 L 1225 652 1225 613.986 L 1225 575.971 1231.404 563.236 C 1234.926 556.231, 1253.826 519.480, 1273.404 481.566 C 1292.982 443.653, 1309 412.485, 1309 412.304 C 1309 412.124, 1292.058 412.094, 1271.352 412.238 L 1233.704 412.500 1213.184 457.750 C 1201.898 482.637, 1192.402 502.998, 1192.082 502.996 C 1191.762 502.994, 1182.207 482.631, 1170.848 457.746 L 1150.196 412.500 1112.011 412.238 C 1091.009 412.094, 1073.977 412.333, 1074.163 412.769 M 1593 469.096 C 1560.825 493.857, 1533.607 514.995, 1532.515 516.071 C 1531.123 517.442, 1534.110 516.557, 1542.515 513.109 C 1549.107 510.405, 1583.300 496.403, 1618.500 481.993 C 1653.700 467.583, 1682.887 455.557, 1683.361 455.269 C 1684.352 454.666, 1654.042 423.981, 1652.512 424.038 C 1651.955 424.058, 1625.175 444.334, 1593 469.096 M 1344.290 457.202 C 1327.332 474.388, 1326.101 475.850, 1319.974 486.043 C 1297.168 523.989, 1298.050 570.379, 1322.281 607.368 C 1347.990 646.614, 1401.344 664.246, 1448.127 648.959 C 1468.127 642.423, 1480.181 634.401, 1500.245 614.276 L 1514.990 599.486 1436.694 521.194 L 1358.398 442.903 1344.290 457.202 M 222 486 L 222 507 241.818 507 C 263.521 507, 269.468 506.001, 274.881 501.447 C 279.226 497.791, 281.397 491.318, 280.734 483.999 C 280.098 476.995, 277.701 472.389, 273.064 469.264 C 267.601 465.582, 263.469 465.011, 242.250 465.006 L 222 465 222 486 M 682.242 531.147 L 682.500 592.500 700.500 592.396 C 720.415 592.280, 726.504 591.203, 738 585.761 C 746.180 581.889, 757.412 570.860, 761.180 563 C 765.889 553.175, 767.363 545.686, 767.379 531.500 C 767.401 511.255, 762.818 497.980, 752 486.952 C 745.535 480.362, 739.668 476.746, 729.733 473.229 C 723.107 470.883, 720.800 470.632, 702.242 470.231 L 681.985 469.794 682.242 531.147 M 920 531.633 L 920 593.266 938.250 592.732 C 951.855 592.334, 958.293 591.707, 963.544 590.268 C 990.641 582.840, 1005 562.525, 1005 531.618 C 1005 511.038, 1000.278 498.048, 988.592 486.478 C 975.734 473.748, 964.077 470, 937.340 470 L 920 470 920 531.633 M 479.530 487.083 C 479.235 487.862, 473.693 504.700, 467.213 524.500 L 455.432 560.500 480.365 560.767 C 494.078 560.915, 505.448 560.885, 505.631 560.702 C 506.110 560.223, 481.912 487.679, 480.907 486.583 C 480.410 486.042, 479.846 486.247, 479.530 487.083 M 222.488 555.170 C 222.196 555.931, 222.079 565.767, 222.229 577.027 L 222.500 597.500 243.490 597.771 C 255.749 597.929, 266.638 597.594, 269.667 596.965 C 281.179 594.575, 286.739 586.798, 285.749 574.467 C 285.034 565.560, 281.796 560.725, 274.177 557.186 C 268.666 554.626, 267.834 554.538, 245.760 554.168 C 227.058 553.854, 222.925 554.032, 222.488 555.170"
        stroke="none"
        fill="#ffffff"
        fill-rule="evenodd"
    />
</svg>